<svg xmlns="http://www.w3.org/2000/svg" width="280" height="560" viewBox="0 0 280 560">
  <rect width="280" height="560" rx="36" fill="#0C1829" stroke="#243D5A" stroke-width="1.5"/>
  <rect x="90" y="18" width="100" height="12" rx="6" fill="#0F2035"/>
  <rect x="16" y="44" width="248" height="50" rx="12" fill="#0F2035"/>
  <rect x="28" y="58" width="90" height="10" rx="4" fill="#1A2E45"/>
  <rect x="28" y="74" width="60" height="8" rx="3" fill="#0F2035"/>
  <rect x="16" y="108" width="248" height="220" rx="14" fill="#0F2035"/>
  <rect x="28" y="120" width="224" height="140" rx="10" fill="#0C1829"/>
  <path d="M60 200 Q100 170 140 185 Q180 200 224 175" stroke="#00C4A7" stroke-width="2" fill="none" opacity="0.6" stroke-dasharray="4,3"/>
  <circle cx="100" cy="175" r="5" fill="#FF6B2C"/>
  <circle cx="100" cy="175" r="15" fill="#FF6B2C" opacity="0.15"/>
  <circle cx="180" cy="188" r="5" fill="#00C4A7"/>
  <circle cx="180" cy="188" r="15" fill="#00C4A7" opacity="0.15"/>
  <rect x="28" y="270" width="224" height="44" rx="10" fill="#00C4A7"/>
  <rect x="86" y="282" width="108" height="20" rx="4" fill="#06111F" opacity="0.25"/>
  <rect x="16" y="342" width="248" height="60" rx="12" fill="#0F2035"/>
  <rect x="28" y="358" width="120" height="10" rx="4" fill="#1A2E45"/>
  <rect x="28" y="374" width="80" height="8" rx="3" fill="#0F2035"/>
  <rect x="198" y="355" width="50" height="26" rx="8" fill="#00C4A7"/>
  <rect x="16" y="416" width="115" height="100" rx="12" fill="#0F2035"/>
  <rect x="149" y="416" width="115" height="100" rx="12" fill="#0F2035"/>
  <rect x="28" y="432" width="50" height="10" rx="4" fill="#00C4A7" opacity="0.6"/>
  <rect x="28" y="448" width="85" height="8" rx="3" fill="#1A2E45"/>
  <rect x="28" y="462" width="65" height="8" rx="3" fill="#1A2E45"/>
  <rect x="161" y="432" width="50" height="10" rx="4" fill="#FF6B2C" opacity="0.6"/>
  <rect x="161" y="448" width="85" height="8" rx="3" fill="#1A2E45"/>
  <rect x="161" y="462" width="65" height="8" rx="3" fill="#1A2E45"/>
  <rect x="90" y="530" width="100" height="8" rx="4" fill="#1A2E45"/>
</svg>