<svg xmlns="http://www.w3.org/2000/svg" width="280" height="560" viewBox="0 0 280 560">
  <rect width="280" height="560" rx="36" fill="#0C1829" stroke="#1A2E45" stroke-width="1.5"/>
  <rect x="90" y="18" width="100" height="12" rx="6" fill="#0F2035"/>
  <rect x="16" y="44" width="248" height="80" rx="14" fill="#0F2035"/>
  <rect x="28" y="56" width="120" height="12" rx="5" fill="#1A2E45"/>
  <rect x="28" y="74" width="80" height="10" rx="4" fill="#0F2035"/>
  <rect x="28" y="90" width="100" height="10" rx="4" fill="#0F2035"/>
  <circle cx="230" cy="84" r="22" fill="#00C4A7" opacity="0.25"/>
  <circle cx="230" cy="84" r="14" fill="#00C4A7"/>
  <rect x="16" y="138" width="248" height="180" rx="14" fill="#0F2035"/>
  <path d="M30 200 Q80 160 140 180 Q200 200 248 170" stroke="#00C4A7" stroke-width="1.5" fill="none" opacity="0.4"/>
  <circle cx="140" cy="180" r="6" fill="#00C4A7"/>
  <circle cx="140" cy="180" r="18" fill="#00C4A7" opacity="0.15"/>
  <rect x="16" y="332" width="116" height="90" rx="14" fill="#0F2035"/>
  <rect x="148" y="332" width="116" height="90" rx="14" fill="#0F2035"/>
  <rect x="28" y="350" width="50" height="10" rx="4" fill="#00C4A7" opacity="0.5"/>
  <rect x="28" y="366" width="80" height="8" rx="3" fill="#1A2E45"/>
  <rect x="28" y="380" width="60" height="8" rx="3" fill="#1A2E45"/>
  <rect x="160" y="350" width="50" height="10" rx="4" fill="#FF6B2C" opacity="0.5"/>
  <rect x="160" y="366" width="80" height="8" rx="3" fill="#1A2E45"/>
  <rect x="160" y="380" width="60" height="8" rx="3" fill="#1A2E45"/>
  <rect x="16" y="436" width="248" height="52" rx="12" fill="#00C4A7"/>
  <rect x="90" y="452" width="100" height="20" rx="5" fill="#06111F" opacity="0.25"/>
  <rect x="16" y="502" width="248" height="36" rx="10" fill="#0F2035"/>
  <rect x="36" y="514" width="80" height="8" rx="3" fill="#1A2E45"/>
  <rect x="36" y="526" width="50" height="6" rx="2" fill="#0F2035"/>
</svg>