<svg xmlns="http://www.w3.org/2000/svg" width="1200" height="400" viewBox="0 0 1200 400">
  <rect width="1200" height="400" fill="#060E1A"/>
  <rect x="0" y="200" width="1200" height="200" fill="#060E1A"/>
  <rect x="50" y="120" width="60" height="280" fill="#0C1829"/>
  <rect x="55" y="100" width="50" height="25" fill="#0F2035"/>
  <rect x="62" y="140" width="12" height="16" fill="#00C4A7" opacity="0.2"/>
  <rect x="82" y="140" width="12" height="16" fill="#00C4A7" opacity="0.15"/>
  <rect x="62" y="165" width="12" height="16" fill="#1A2E45"/>
  <rect x="82" y="165" width="12" height="16" fill="#00C4A7" opacity="0.25"/>
  <rect x="62" y="190" width="12" height="16" fill="#00C4A7" opacity="0.1"/>
  <rect x="82" y="190" width="12" height="16" fill="#1A2E45"/>
  <rect x="130" y="80" width="80" height="320" fill="#0C1829"/>
  <rect x="136" y="100" width="15" height="20" fill="#00C4A7" opacity="0.3"/>
  <rect x="157" y="100" width="15" height="20" fill="#1A2E45"/>
  <rect x="178" y="100" width="15" height="20" fill="#00C4A7" opacity="0.2"/>
  <rect x="136" y="128" width="15" height="20" fill="#1A2E45"/>
  <rect x="157" y="128" width="15" height="20" fill="#00C4A7" opacity="0.15"/>
  <rect x="178" y="128" width="15" height="20" fill="#FF6B2C" opacity="0.2"/>
  <rect x="136" y="156" width="15" height="20" fill="#00C4A7" opacity="0.25"/>
  <rect x="157" y="156" width="15" height="20" fill="#1A2E45"/>
  <rect x="178" y="156" width="15" height="20" fill="#00C4A7" opacity="0.1"/>
  <rect x="230" y="150" width="50" height="250" fill="#0F2035"/>
  <rect x="238" y="165" width="10" height="12" fill="#00C4A7" opacity="0.3"/>
  <rect x="254" y="165" width="10" height="12" fill="#1A2E45"/>
  <rect x="238" y="185" width="10" height="12" fill="#1A2E45"/>
  <rect x="254" y="185" width="10" height="12" fill="#FF6B2C" opacity="0.25"/>
  <rect x="300" y="60" width="100" height="340" fill="#0C1829"/>
  <rect x="308" y="80" width="18" height="22" fill="#00C4A7" opacity="0.3"/>
  <rect x="332" y="80" width="18" height="22" fill="#1A2E45"/>
  <rect x="356" y="80" width="18" height="22" fill="#00C4A7" opacity="0.2"/>
  <rect x="308" y="112" width="18" height="22" fill="#FF6B2C" opacity="0.2"/>
  <rect x="332" y="112" width="18" height="22" fill="#00C4A7" opacity="0.15"/>
  <rect x="356" y="112" width="18" height="22" fill="#1A2E45"/>
  <rect x="308" y="144" width="18" height="22" fill="#00C4A7" opacity="0.25"/>
  <rect x="332" y="144" width="18" height="22" fill="#1A2E45"/>
  <rect x="356" y="144" width="18" height="22" fill="#00C4A7" opacity="0.1"/>
  <rect x="420" y="100" width="70" height="300" fill="#0F2035"/>
  <rect x="428" y="115" width="14" height="18" fill="#00C4A7" opacity="0.2"/>
  <rect x="448" y="115" width="14" height="18" fill="#1A2E45"/>
  <rect x="468" y="115" width="14" height="18" fill="#FF6B2C" opacity="0.15"/>
  <rect x="510" y="130" width="90" height="270" fill="#0C1829"/>
  <rect x="610" y="90" width="120" height="310" fill="#0F2035"/>
  <rect x="618" y="108" width="20" height="24" fill="#00C4A7" opacity="0.3"/>
  <rect x="646" y="108" width="20" height="24" fill="#1A2E45"/>
  <rect x="674" y="108" width="20" height="24" fill="#FF6B2C" opacity="0.2"/>
  <rect x="702" y="108" width="20" height="24" fill="#00C4A7" opacity="0.15"/>
  <rect x="750" y="70" width="80" height="330" fill="#0C1829"/>
  <rect x="758" y="88" width="16" height="20" fill="#00C4A7" opacity="0.35"/>
  <rect x="780" y="88" width="16" height="20" fill="#1A2E45"/>
  <rect x="802" y="88" width="16" height="20" fill="#FF6B2C" opacity="0.25"/>
  <rect x="850" y="110" width="60" height="290" fill="#0F2035"/>
  <rect x="930" y="80" width="100" height="320" fill="#0C1829"/>
  <rect x="938" y="98" width="18" height="22" fill="#00C4A7" opacity="0.3"/>
  <rect x="962" y="98" width="18" height="22" fill="#1A2E45"/>
  <rect x="986" y="98" width="18" height="22" fill="#FF6B2C" opacity="0.2"/>
  <rect x="1050" y="140" width="70" height="260" fill="#0F2035"/>
  <rect x="1140" y="100" width="60" height="300" fill="#0C1829"/>
  <rect x="0" y="300" width="1200" height="4" fill="#1A2E45" opacity="0.5"/>
  <rect x="0" y="296" width="1200" height="1" fill="#00C4A7" opacity="0.08"/>
  <rect x="0" y="290" width="1200" height="400" fill="url(#fade)" opacity="0.7"/>
  <defs>
    <linearGradient id="fade" x1="0" y1="0" x2="0" y2="1">
      <stop offset="0%" stop-color="#060E1A" stop-opacity="0"/>
      <stop offset="100%" stop-color="#060E1A" stop-opacity="1"/>
    </linearGradient>
  </defs>
</svg>