<svg xmlns="http://www.w3.org/2000/svg" width="600" height="500" viewBox="0 0 600 500">
  <rect width="600" height="500" fill="#0B2428" rx="20"/>
  <rect x="30" y="30" width="540" height="440" rx="16" fill="#0C1829" stroke="#1A2E45" stroke-width="1"/>
  <circle cx="300" cy="160" r="80" fill="#0F2035"/>
  <circle cx="300" cy="130" r="45" fill="#1A2E45"/>
  <ellipse cx="300" cy="230" rx="80" ry="45" fill="#1A2E45"/>
  <rect x="80" y="270" width="440" height="1" fill="#1A2E45"/>
  <rect x="60" y="295" width="200" height="60" rx="12" fill="#0F2035"/>
  <rect x="340" y="295" width="200" height="60" rx="12" fill="#0F2035"/>
  <rect x="76" y="313" width="60" height="10" rx="4" fill="#00C4A7" opacity="0.6"/>
  <rect x="76" y="329" width="100" height="8" rx="3" fill="#1A2E45"/>
  <rect x="356" y="313" width="60" height="10" rx="4" fill="#FF6B2C" opacity="0.6"/>
  <rect x="356" y="329" width="100" height="8" rx="3" fill="#1A2E45"/>
  <rect x="60" y="375" width="480" height="52" rx="12" fill="#00C4A7"/>
  <rect x="210" y="391" width="180" height="20" rx="6" fill="#06111F" opacity="0.25"/>
  <rect x="60" y="445" width="140" height="16" rx="5" fill="#1A2E45"/>
  <rect x="60" y="467" width="100" height="12" rx="4" fill="#0F2035"/>
</svg>