<svg xmlns="http://www.w3.org/2000/svg" width="1200" height="700" viewBox="0 0 1200 700">
  <defs>
    <radialGradient id="g1" cx="70%" cy="30%" r="60%"><stop offset="0%" stop-color="#00C4A7" stop-opacity="0.15"/><stop offset="100%" stop-color="#060E1A" stop-opacity="0"/></radialGradient>
    <radialGradient id="g2" cx="20%" cy="80%" r="50%"><stop offset="0%" stop-color="#FF6B2C" stop-opacity="0.12"/><stop offset="100%" stop-color="#060E1A" stop-opacity="0"/></radialGradient>
    <radialGradient id="g3" cx="50%" cy="50%" r="70%"><stop offset="0%" stop-color="#0C1829" stop-opacity="1"/><stop offset="100%" stop-color="#060E1A" stop-opacity="1"/></radialGradient>
  </defs>
  <rect width="1200" height="700" fill="#060E1A"/>
  <rect width="1200" height="700" fill="url(#g3)"/>
  <rect width="1200" height="700" fill="url(#g1)"/>
  <rect width="1200" height="700" fill="url(#g2)"/>
  <circle cx="900" cy="150" r="300" fill="none" stroke="#00C4A7" stroke-width="0.5" opacity="0.15"/>
  <circle cx="900" cy="150" r="200" fill="none" stroke="#00C4A7" stroke-width="0.5" opacity="0.12"/>
  <circle cx="900" cy="150" r="100" fill="none" stroke="#00C4A7" stroke-width="0.5" opacity="0.1"/>
  <circle cx="150" cy="580" r="200" fill="none" stroke="#FF6B2C" stroke-width="0.5" opacity="0.12"/>
  <line x1="0" y1="0" x2="1200" y2="700" stroke="#00C4A7" stroke-width="0.3" opacity="0.05"/>
  <line x1="0" y1="700" x2="1200" y2="0" stroke="#00C4A7" stroke-width="0.3" opacity="0.05"/>
  <rect x="700" y="80" width="380" height="520" rx="24" fill="none" stroke="#1A2E45" stroke-width="1" opacity="0.8"/>
  <rect x="720" y="100" width="340" height="480" rx="18" fill="#0C1829" opacity="0.9"/>
  <rect x="740" y="120" width="300" height="50" rx="10" fill="#0F2035"/>
  <circle cx="760" cy="145" r="14" fill="#00C4A7" opacity="0.3"/>
  <rect x="780" y="138" width="140" height="8" rx="4" fill="#1A2E45"/>
  <rect x="780" y="152" width="100" height="6" rx="3" fill="#0F2035"/>
  <rect x="740" y="185" width="300" height="160" rx="10" fill="#0F2035"/>
  <circle cx="890" cy="265" r="6" fill="#00C4A7"/>
  <circle cx="890" cy="265" r="20" fill="#00C4A7" opacity="0.15"/>
  <rect x="740" y="360" width="140" height="70" rx="10" fill="#0F2035"/>
  <rect x="900" y="360" width="140" height="70" rx="10" fill="#0F2035"/>
  <rect x="758" y="378" width="60" height="10" rx="3" fill="#00C4A7" opacity="0.6"/>
  <rect x="758" y="395" width="90" height="7" rx="3" fill="#1A2E45"/>
  <rect x="918" y="378" width="60" height="10" rx="3" fill="#FF6B2C" opacity="0.6"/>
  <rect x="918" y="395" width="90" height="7" rx="3" fill="#1A2E45"/>
  <rect x="740" y="450" width="300" height="44" rx="10" fill="#00C4A7"/>
  <rect x="830" y="462" width="120" height="20" rx="4" fill="#06111F" opacity="0.3"/>
</svg>