<svg xmlns="http://www.w3.org/2000/svg" width="320" height="620" viewBox="0 0 320 620">
  <rect width="320" height="620" rx="40" fill="#0C1829" stroke="#1A2E45" stroke-width="1.5"/>
  <rect x="15" y="15" width="290" height="590" rx="30" fill="#060E1A"/>
  <rect x="110" y="22" width="100" height="14" rx="7" fill="#0F2035"/>
  <rect x="20" y="50" width="280" height="60" rx="12" fill="#0F2035"/>
  <circle cx="55" cy="80" r="18" fill="#00C4A7" opacity="0.2"/>
  <circle cx="55" cy="80" r="10" fill="#00C4A7" opacity="0.4"/>
  <rect x="80" y="68" width="120" height="10" rx="5" fill="#1A2E45"/>
  <rect x="80" y="84" width="80" height="8" rx="4" fill="#0F2035"/>
  <rect x="20" y="125" width="280" height="200" rx="12" fill="#0F2035"/>
  <circle cx="160" cy="225" r="8" fill="#00C4A7"/>
  <circle cx="160" cy="225" r="28" fill="#00C4A7" opacity="0.12"/>
  <rect x="60" y="200" width="40" height="40" rx="6" fill="#1A2E45"/>
  <rect x="240" y="200" width="40" height="40" rx="6" fill="#1A2E45"/>
  <path d="M60 170 Q160 140 260 170" stroke="#00C4A7" stroke-width="1" fill="none" opacity="0.3"/>
  <rect x="20" y="342" width="130" height="80" rx="12" fill="#0F2035"/>
  <rect x="170" y="342" width="130" height="80" rx="12" fill="#0F2035"/>
  <rect x="34" y="360" width="50" height="10" rx="4" fill="#00C4A7" opacity="0.5"/>
  <rect x="34" y="376" width="90" height="8" rx="3" fill="#1A2E45"/>
  <rect x="34" y="390" width="70" height="8" rx="3" fill="#1A2E45"/>
  <rect x="184" y="360" width="50" height="10" rx="4" fill="#FF6B2C" opacity="0.5"/>
  <rect x="184" y="376" width="90" height="8" rx="3" fill="#1A2E45"/>
  <rect x="184" y="390" width="70" height="8" rx="3" fill="#1A2E45"/>
  <rect x="20" y="440" width="280" height="52" rx="12" fill="#00C4A7"/>
  <rect x="100" y="456" width="120" height="20" rx="6" fill="#06111F" opacity="0.25"/>
  <rect x="20" y="510" width="280" height="40" rx="12" fill="#0F2035"/>
  <rect x="40" y="522" width="100" height="8" rx="4" fill="#1A2E45"/>
  <rect x="40" y="534" width="60" height="6" rx="3" fill="#0F2035"/>
  <rect x="90" y="574" width="140" height="6" rx="3" fill="#1A2E45"/>
</svg>